<svg id="visual" viewBox="0 0 960 340" width="960" height="340" xmlns="http://www.w3.org/2000/svg" xmlns:xlink="http://www.w3.org/1999/xlink" version="1.1"><rect x="0" y="0" width="960" height="340" fill="#eee"></rect><path d="M0 220L22.8 217.8C45.7 215.7 91.3 211.3 137 209.2C182.7 207 228.3 207 274 212.5C319.7 218 365.3 229 411.2 227.5C457 226 503 212 548.8 205.5C594.7 199 640.3 200 686 209.2C731.7 218.3 777.3 235.7 823 244.2C868.7 252.7 914.3 252.3 937.2 252.2L960 252L960 341L937.2 341C914.3 341 868.7 341 823 341C777.3 341 731.7 341 686 341C640.3 341 594.7 341 548.8 341C503 341 457 341 411.2 341C365.3 341 319.7 341 274 341C228.3 341 182.7 341 137 341C91.3 341 45.7 341 22.8 341L0 341Z" fill="#fa7268"></path><path d="M0 233L22.8 234.7C45.7 236.3 91.3 239.7 137 242.2C182.7 244.7 228.3 246.3 274 246.3C319.7 246.3 365.3 244.7 411.2 242.2C457 239.7 503 236.3 548.8 238.7C594.7 241 640.3 249 686 254.8C731.7 260.7 777.3 264.3 823 263C868.7 261.7 914.3 255.3 937.2 252.2L960 249L960 341L937.2 341C914.3 341 868.7 341 823 341C777.3 341 731.7 341 686 341C640.3 341 594.7 341 548.8 341C503 341 457 341 411.2 341C365.3 341 319.7 341 274 341C228.3 341 182.7 341 137 341C91.3 341 45.7 341 22.8 341L0 341Z" fill="#ef5f67"></path><path d="M0 280L22.8 279.7C45.7 279.3 91.3 278.7 137 278C182.7 277.3 228.3 276.7 274 277.7C319.7 278.7 365.3 281.3 411.2 278.8C457 276.3 503 268.7 548.8 268.7C594.7 268.7 640.3 276.3 686 280.3C731.7 284.3 777.3 284.7 823 281.2C868.7 277.7 914.3 270.3 937.2 266.7L960 263L960 341L937.2 341C914.3 341 868.7 341 823 341C777.3 341 731.7 341 686 341C640.3 341 594.7 341 548.8 341C503 341 457 341 411.2 341C365.3 341 319.7 341 274 341C228.3 341 182.7 341 137 341C91.3 341 45.7 341 22.8 341L0 341Z" fill="#e34c67"></path><path d="M0 272L22.8 277.2C45.7 282.3 91.3 292.7 137 295.8C182.7 299 228.3 295 274 291.7C319.7 288.3 365.3 285.7 411.2 286.5C457 287.3 503 291.7 548.8 291C594.7 290.3 640.3 284.7 686 286.2C731.7 287.7 777.3 296.3 823 298.2C868.7 300 914.3 295 937.2 292.5L960 290L960 341L937.2 341C914.3 341 868.7 341 823 341C777.3 341 731.7 341 686 341C640.3 341 594.7 341 548.8 341C503 341 457 341 411.2 341C365.3 341 319.7 341 274 341C228.3 341 182.7 341 137 341C91.3 341 45.7 341 22.8 341L0 341Z" fill="#d53867"></path><path d="M0 312L22.8 310.3C45.7 308.7 91.3 305.3 137 306.3C182.7 307.3 228.3 312.7 274 312.8C319.7 313 365.3 308 411.2 308C457 308 503 313 548.8 314.7C594.7 316.3 640.3 314.7 686 311.5C731.7 308.3 777.3 303.7 823 304C868.7 304.3 914.3 309.7 937.2 312.3L960 315L960 341L937.2 341C914.3 341 868.7 341 823 341C777.3 341 731.7 341 686 341C640.3 341 594.7 341 548.8 341C503 341 457 341 411.2 341C365.3 341 319.7 341 274 341C228.3 341 182.7 341 137 341C91.3 341 45.7 341 22.8 341L0 341Z" fill="#c62368"></path></svg>