<?xml version="1.0" encoding="utf-8"?>
<svg viewBox="0 0 960 680" xmlns="http://www.w3.org/2000/svg">
  <g stroke-width="1" stroke-linejoin="bevel" transform="matrix(1.0002800226211548, 0, 0, 1, 0.731671929359436, 528.1085815429688)" style="">
    <path d="M -0.803 -411.198 L 21.997 -408.998 C 44.897 -406.898 90.497 -402.498 136.197 -400.398 C 181.897 -398.198 227.497 -398.198 273.197 -403.698 C 318.897 -409.198 364.497 -420.198 410.397 -418.698 C 456.197 -417.198 502.197 -403.198 547.997 -396.698 C 593.897 -390.198 639.497 -391.198 685.197 -400.398 C 730.897 -409.498 776.497 -426.898 822.197 -435.398 C 867.897 -443.898 913.497 -443.498 936.397 -443.398 L 959.197 -443.198 L 959.197 -529.198 L 936.397 -529.198 C 913.497 -529.198 867.897 -529.198 822.197 -529.198 C 776.497 -529.198 730.897 -529.198 685.197 -529.198 C 639.497 -529.198 593.897 -529.198 547.997 -529.198 C 502.197 -529.198 456.197 -529.198 410.397 -529.198 C 364.497 -529.198 318.897 -529.198 273.197 -529.198 C 227.497 -529.198 181.897 -529.198 136.197 -529.198 C 90.497 -529.198 44.897 -529.198 21.997 -529.198 L -0.803 -529.198 L -0.803 -411.198 Z" fill="#fa7268"/>
    <path d="M -0.803 -424.198 L 21.997 -425.898 C 44.897 -427.498 90.497 -430.898 136.197 -433.398 C 181.897 -435.898 227.497 -437.498 273.197 -437.498 C 318.897 -437.498 364.497 -435.898 410.397 -433.398 C 456.197 -430.898 502.197 -427.498 547.997 -429.898 C 593.897 -432.198 639.497 -440.198 685.197 -445.998 C 730.897 -451.898 776.497 -455.498 822.197 -454.198 C 867.897 -452.898 913.497 -446.498 936.397 -443.398 L 959.197 -440.198 L 959.197 -529.198 L 936.397 -529.198 C 913.497 -529.198 867.897 -529.198 822.197 -529.198 C 776.497 -529.198 730.897 -529.198 685.197 -529.198 C 639.497 -529.198 593.897 -529.198 547.997 -529.198 C 502.197 -529.198 456.197 -529.198 410.397 -529.198 C 364.497 -529.198 318.897 -529.198 273.197 -529.198 C 227.497 -529.198 181.897 -529.198 136.197 -529.198 C 90.497 -529.198 44.897 -529.198 21.997 -529.198 L -0.803 -529.198 L -0.803 -424.198 Z" fill="#ef5f67"/>
    <path d="M -0.803 -471.198 L 21.997 -470.898 C 44.897 -470.498 90.497 -469.898 136.197 -469.198 C 181.897 -468.498 227.497 -467.898 273.197 -468.898 C 318.897 -469.898 364.497 -472.498 410.397 -469.998 C 456.197 -467.498 502.197 -459.898 547.997 -459.898 C 593.897 -459.898 639.497 -467.498 685.197 -471.498 C 730.897 -475.498 776.497 -475.898 822.197 -472.398 C 867.897 -468.898 913.497 -461.498 936.397 -457.898 L 959.197 -454.198 L 959.197 -529.198 L 936.397 -529.198 C 913.497 -529.198 867.897 -529.198 822.197 -529.198 C 776.497 -529.198 730.897 -529.198 685.197 -529.198 C 639.497 -529.198 593.897 -529.198 547.997 -529.198 C 502.197 -529.198 456.197 -529.198 410.397 -529.198 C 364.497 -529.198 318.897 -529.198 273.197 -529.198 C 227.497 -529.198 181.897 -529.198 136.197 -529.198 C 90.497 -529.198 44.897 -529.198 21.997 -529.198 L -0.803 -529.198 L -0.803 -471.198 Z" fill="#e34c67"/>
    <path d="M -0.803 -463.198 L 21.997 -468.398 C 44.897 -473.498 90.497 -483.898 136.197 -486.998 C 181.897 -490.198 227.497 -486.198 273.197 -482.898 C 318.897 -479.498 364.497 -476.898 410.397 -477.698 C 456.197 -478.498 502.197 -482.898 547.997 -482.198 C 593.897 -481.498 639.497 -475.898 685.197 -477.398 C 730.897 -478.898 776.497 -487.498 822.197 -489.398 C 867.897 -491.198 913.497 -486.198 936.397 -483.698 L 959.197 -481.198 L 959.197 -529.198 L 936.397 -529.198 C 913.497 -529.198 867.897 -529.198 822.197 -529.198 C 776.497 -529.198 730.897 -529.198 685.197 -529.198 C 639.497 -529.198 593.897 -529.198 547.997 -529.198 C 502.197 -529.198 456.197 -529.198 410.397 -529.198 C 364.497 -529.198 318.897 -529.198 273.197 -529.198 C 227.497 -529.198 181.897 -529.198 136.197 -529.198 C 90.497 -529.198 44.897 -529.198 21.997 -529.198 L -0.803 -529.198 L -0.803 -463.198 Z" fill="#d53867"/>
    <path d="M -0.803 -503.198 L 21.997 -501.498 C 44.897 -499.898 90.497 -496.498 136.197 -497.498 C 181.897 -498.498 227.497 -503.898 273.197 -503.998 C 318.897 -504.198 364.497 -499.198 410.397 -499.198 C 456.197 -499.198 502.197 -504.198 547.997 -505.898 C 593.897 -507.498 639.497 -505.898 685.197 -502.698 C 730.897 -499.498 776.497 -494.898 822.197 -495.198 C 867.897 -495.498 913.497 -500.898 936.397 -503.498 L 959.197 -506.198 L 959.197 -529.198 L 936.397 -529.198 C 913.497 -529.198 867.897 -529.198 822.197 -529.198 C 776.497 -529.198 730.897 -529.198 685.197 -529.198 C 639.497 -529.198 593.897 -529.198 547.997 -529.198 C 502.197 -529.198 456.197 -529.198 410.397 -529.198 C 364.497 -529.198 318.897 -529.198 273.197 -529.198 C 227.497 -529.198 181.897 -529.198 136.197 -529.198 C 90.497 -529.198 44.897 -529.198 21.997 -529.198 L -0.803 -529.198 L -0.803 -503.198 Z" fill="#c62368"/>
  </g>
</svg>